<svg xmlns="http://www.w3.org/2000/svg"  viewBox="0 0 50 50" width="100px" height="100px"><path d="M 25.40625 3 C 19.304688 3 12.585938 5.3125 11.1875 12.8125 C 10.988281 13.613281 11.59375 13.992188 12.09375 14.09375 L 18.3125 14.6875 C 18.914063 14.6875 19.300781 14.101563 19.5 13.5 C 20 10.898438 22.195313 9.59375 24.59375 9.59375 C 25.894531 9.59375 27.386719 10.113281 28.1875 11.3125 C 29.085938 12.613281 28.90625 14.40625 28.90625 15.90625 L 28.90625 16.8125 C 25.207031 17.210938 20.40625 17.5 16.90625 19 C 12.90625 20.699219 10.09375 24.207031 10.09375 29.40625 C 10.09375 36.007813 14.292969 39.3125 19.59375 39.3125 C 24.09375 39.3125 26.59375 38.195313 30.09375 34.59375 C 31.292969 36.292969 31.710938 37.105469 33.8125 38.90625 C 34.011719 39.007813 34.207031 39.09375 34.40625 39.09375 C 34.707031 39.09375 35.011719 39.011719 35.3125 38.8125 L 35.3125 38.90625 C 36.613281 37.804688 38.886719 35.695313 40.1875 34.59375 C 40.6875 34.195313 40.585938 33.507813 40.1875 32.90625 C 38.988281 31.40625 37.8125 30 37.8125 27 L 37.8125 17.09375 C 37.8125 12.894531 38.101563 8.992188 35 6.09375 C 32.5 3.792969 28.507813 3 25.40625 3 Z M 25.40625 5 C 28.105469 5 31.59375 5.695313 33.59375 7.59375 C 35.695313 9.59375 35.8125 12.09375 35.8125 16.09375 L 35.8125 27 C 35.8125 30.300781 37.085938 32.09375 38.1875 33.59375 C 37.886719 33.792969 37.613281 34.105469 37.3125 34.40625 L 37.3125 34.3125 L 34.40625 36.90625 C 33.304688 35.90625 32.886719 35.3125 32.1875 34.3125 C 32.085938 34.113281 31.886719 33.894531 31.6875 33.59375 L 30.3125 31.59375 L 28.59375 33.3125 C 25.492188 36.511719 23.492188 37.40625 19.59375 37.40625 C 14.894531 37.40625 12.09375 34.398438 12.09375 29.5 C 12.09375 25.5 14.085938 22.507813 17.6875 20.90625 C 20.289063 19.804688 23.988281 19.394531 27.1875 19.09375 C 27.886719 18.992188 28.492188 19.007813 29.09375 18.90625 L 30.90625 18.6875 L 30.90625 15.5 C 30.90625 13.898438 30.914063 12.011719 29.8125 10.3125 C 28.710938 8.710938 26.792969 7.6875 24.59375 7.6875 C 21.195313 7.6875 18.488281 9.59375 17.6875 12.59375 L 13.5 12.1875 C 15.101563 5.988281 21.605469 5 25.40625 5 Z M 27.09375 20 C 19.195313 20.5 17.5 24.804688 17.5 28.40625 C 17.398438 32.304688 19.8125 35 23.3125 35 C 25.8125 35 28.101563 33.492188 29.5 31.09375 C 30.898438 28.59375 30.90625 26.304688 30.90625 23.90625 L 30.90625 20 Z M 27.09375 22 L 28.90625 22 L 28.90625 23.40625 C 28.90625 25.90625 28.988281 27.894531 27.6875 30.09375 C 26.6875 31.894531 25.011719 33 23.3125 33 C 20.914063 33 19.40625 31.207031 19.40625 28.40625 C 19.40625 23.707031 23.09375 22.300781 27.09375 22 Z M 44.6875 36.59375 C 43.085938 36.59375 41.210938 37 39.8125 38 C 39.414063 38.300781 39.40625 38.6875 39.90625 38.6875 C 41.507813 38.488281 45.113281 38.007813 45.8125 38.90625 C 46.414063 39.707031 45.101563 43.085938 44.5 44.6875 C 44.300781 45.1875 44.695313 45.300781 45.09375 45 C 47.792969 42.699219 48.5 38.007813 48 37.40625 C 47.699219 36.90625 46.289063 36.59375 44.6875 36.59375 Z M 2.3125 37.5 C 2.011719 37.5 1.789063 38.011719 2.1875 38.3125 C 8.1875 43.710938 16.199219 47 25 47 C 31.300781 47 38.585938 45.011719 43.6875 41.3125 C 44.488281 40.710938 43.800781 39.695313 43 40.09375 C 37.300781 42.492188 31.195313 43.6875 25.59375 43.6875 C 17.292969 43.6875 9.3125 41.386719 2.8125 37.6875 C 2.613281 37.488281 2.414063 37.5 2.3125 37.5 Z"/></svg>