<?xml version="1.0"?><svg xmlns="http://www.w3.org/2000/svg"  viewBox="0 0 30 30" width="60px" height="60px">    <path d="M 6 4 C 4.895 4 4 4.895 4 6 L 4 12 C 4 13.105 4.895 14 6 14 L 12 14 C 13.105 14 14 13.105 14 12 L 14 6 C 14 4.895 13.105 4 12 4 L 6 4 z M 18 4 C 16.895 4 16 4.895 16 6 L 16 12 C 16 13.105 16.895 14 18 14 L 24 14 C 25.105 14 26 13.105 26 12 L 26 6 C 26 4.895 25.105 4 24 4 L 18 4 z M 6 16 C 4.895 16 4 16.895 4 18 L 4 24 C 4 25.105 4.895 26 6 26 L 12 26 C 13.105 26 14 25.105 14 24 L 14 18 C 14 16.895 13.105 16 12 16 L 6 16 z M 18 16 C 16.895 16 16 16.895 16 18 L 16 24 C 16 25.105 16.895 26 18 26 L 24 26 C 25.105 26 26 25.105 26 24 L 26 18 C 26 16.895 25.105 16 24 16 L 18 16 z"/></svg>