<svg xmlns="http://www.w3.org/2000/svg"  viewBox="0 0 50 50" width="100px" height="100px"><path d="M 9.8125 2 C 9.335938 2.089844 8.992188 2.511719 9 3 L 9 47 C 9 47.550781 9.449219 48 10 48 L 40 48 C 40.550781 48 41 47.550781 41 47 L 41 3 C 41 2.449219 40.550781 2 40 2 L 10 2 C 9.96875 2 9.9375 2 9.90625 2 C 9.875 2 9.84375 2 9.8125 2 Z M 11 4 L 39 4 L 39 46 L 11 46 Z M 23.125 10.09375 C 19.917969 10.175781 16.710938 10.507813 13.6875 11.53125 L 14.375 12.53125 C 16.933594 11.632813 19.953125 11.191406 23.15625 11.09375 C 24.371094 11.058594 25.632813 11.058594 26.84375 11.09375 C 30.046875 11.191406 33.066406 11.632813 35.625 12.53125 L 36.3125 11.53125 C 33.289063 10.507813 30.082031 10.175781 26.875 10.09375 C 25.632813 10.0625 24.363281 10.0625 23.125 10.09375 Z M 21.96875 12.25 C 19.824219 12.308594 16.882813 12.574219 14.90625 13.375 C 15.269531 14.066406 16.851563 15.0625 17.71875 15.28125 C 17.769531 13.921875 19.6875 13.625 21.53125 13.625 L 25 32.15625 L 28.46875 13.625 C 30.3125 13.625 32.230469 13.921875 32.28125 15.28125 C 33.152344 15.0625 34.730469 14.066406 35.09375 13.375 C 32.457031 12.308594 28.109375 12.179688 26.21875 12.25 L 25 13.8125 L 23.78125 12.25 C 23.308594 12.230469 22.683594 12.230469 21.96875 12.25 Z M 13.3125 37.0625 C 13.378906 37.34375 13.628906 37.597656 13.9375 37.71875 L 14.875 37.71875 L 14.90625 37.75 L 14.90625 40.28125 L 15.5 40.28125 L 15.5 37.75 L 15.53125 37.71875 L 16.5 37.71875 C 16.808594 37.597656 17.027344 37.34375 17.09375 37.0625 Z M 23.625 37.0625 L 23.625 38.96875 L 26.28125 38.96875 L 26.28125 39.625 L 24.21875 39.625 C 23.914063 39.75 23.6875 39.96875 23.625 40.25 L 23.625 40.28125 L 26.875 40.28125 L 26.875 38.34375 L 24.1875 38.34375 L 24.1875 37.71875 L 26.25 37.71875 C 26.558594 37.625 26.78125 37.34375 26.84375 37.0625 Z M 28.53125 37.0625 L 28.53125 40.25 L 31.15625 40.25 C 31.445313 40.117188 31.597656 39.890625 31.65625 39.625 L 29.09375 39.625 L 29.09375 37.0625 Z M 18.5 37.09375 C 18.5625 37.375 18.8125 37.59375 19.125 37.71875 L 21.34375 37.71875 C 21.65625 37.59375 21.871094 37.375 21.9375 37.09375 Z M 33.25 37.09375 C 33.3125 37.375 33.53125 37.59375 33.84375 37.71875 L 36.09375 37.71875 C 36.40625 37.59375 36.625 37.375 36.6875 37.09375 Z M 18.5 38.3125 C 18.5625 38.589844 18.8125 38.847656 19.125 38.96875 L 21.34375 38.96875 C 21.65625 38.847656 21.871094 38.589844 21.9375 38.3125 Z M 33.34375 38.3125 L 33.34375 40.25 L 33.9375 40.25 L 33.9375 38.96875 L 36.03125 38.96875 L 36.03125 40.25 L 36.59375 40.25 L 36.59375 38.3125 Z M 18.5 39.625 C 18.5625 39.90625 18.8125 40.125 19.125 40.25 L 21.34375 40.25 C 21.65625 40.125 21.871094 39.90625 21.9375 39.625 Z"/></svg>