<svg xmlns="http://www.w3.org/2000/svg"  viewBox="0 0 128 128" width="256px" height="256px"><path d="M 64 23.775391 C 48.375 23.775391 32.750391 26.749219 17.900391 32.699219 C 16.400391 33.299219 15.599219 35.099609 16.199219 36.599609 C 16.799219 38.099609 18.599609 38.900781 20.099609 38.300781 C 48.399609 27.000781 79.600391 27.000781 107.90039 38.300781 C 108.30039 38.400781 108.6 38.5 109 38.5 C 110.2 38.5 111.30078 37.799609 111.80078 36.599609 C 112.40078 34.999609 111.69961 33.299219 110.09961 32.699219 C 95.249609 26.749219 79.625 23.775391 64 23.775391 z M 54.556641 38.183594 C 54.374219 38.169727 54.1875 38.174219 54 38.199219 C 43.4 39.199219 33.099609 41.699219 23.099609 45.699219 C 22.299609 45.999219 21.600391 46.699609 21.400391 47.599609 C 21.100391 48.499609 21.199219 49.399609 21.699219 50.099609 L 27 58.400391 C 27.6 59.300391 28.5 59.800781 29.5 59.800781 C 30.1 59.800781 30.599609 59.600781 31.099609 59.300781 C 32.499609 58.400781 32.9 56.599219 32 55.199219 L 28.699219 50 C 36.199219 47.3 43.899219 45.5 51.699219 44.5 L 61 101.19922 C 61.2 102.69922 62.5 103.69922 64 103.69922 L 64.5 103.69922 C 65.8 103.49922 66.7 102.50078 67 101.30078 L 76.300781 44.599609 C 84.100781 45.499609 91.800781 47.399609 99.300781 50.099609 L 96 55.300781 C 95.1 56.700781 95.500391 58.600391 96.900391 59.400391 C 97.400391 59.700391 98 59.900391 98.5 59.900391 C 99.5 59.900391 100.5 59.4 101 58.5 L 106.30078 50.199219 C 106.80078 49.399219 106.89961 48.499219 106.59961 47.699219 C 106.39961 46.699219 105.70039 45.999219 104.90039 45.699219 C 95.000391 41.699219 84.6 39.199219 74 38.199219 C 72.4 38.099219 71.100781 39.099609 70.800781 40.599609 L 70.800781 40.699219 L 64 82.199219 L 57.199219 40.699219 L 57.199219 40.599609 C 56.936719 39.287109 55.833594 38.280664 54.556641 38.183594 z"/></svg>